<svg version="1.1" xmlns="http://www.w3.org/2000/svg" xmlns:xlink="http://www.w3.org/1999/xlink" width="22" height="20" viewBox="0,0,256,232.73334"><g fill="#5d001e" fill-rule="nonzero" stroke="none" stroke-width="1" stroke-linecap="butt" stroke-linejoin="miter" stroke-miterlimit="10" stroke-dasharray="" stroke-dashoffset="0" font-family="none" font-weight="none" font-size="none" text-anchor="none" style="mix-blend-mode: normal"><g transform="translate(-0.25822,0.00303) scale(11.63636,11.63636)"><path d="M9.70076,8.7l-6.19998,-8.1c-0.4,-0.4 -0.9,-0.6 -1.4,-0.6c-0.5,0 -1,0.2 -1.4,0.6c-0.7,0.8 -0.7,2 0,2.8l4.89999,6.6l-4.89999,6.6c-0.7,0.8 -0.7,2 0,2.8c0.4,0.4 0.9,0.6 1.4,0.6c0.5,0 1,-0.2 1.4,-0.6l6.19998,-8.1c0.70004,-0.6 0.70004,-1.8 0,-2.6z"></path><path d="M12.3436,8.7l6.2,-8.1c0.4,-0.4 0.9,-0.6 1.4,-0.6c0.5,0 1,0.2 1.4,0.6c0.7,0.8 0.7,2 0,2.8l-4.9,6.6l4.9,6.6c0.7,0.8 0.7,2 0,2.8c-0.4,0.4 -0.9,0.6 -1.4,0.6c-0.5,0 -1,-0.2 -1.4,-0.6l-6.2,-8.1c-0.7,-0.6 -0.7,-1.8 0,-2.6z"></path></g></g></svg>